Coordinates
version=1
nRows=14
nColumns=40
inDegrees=yes

Units are S.I. units (second, meters, Newtons, ...)
Angles are in degrees.

endheader
time	pelvis_tilt	pelvis_list	pelvis_rotation	pelvis_tx	pelvis_ty	pelvis_tz	hip_flexion_r	hip_adduction_r	hip_rotation_r	knee_angle_r	knee_angle_r_beta	ankle_angle_r	subtalar_angle_r	mtp_angle_r	hip_flexion_l	hip_adduction_l	hip_rotation_l	knee_angle_l	knee_angle_l_beta	ankle_angle_l	subtalar_angle_l	mtp_angle_l	lumbar_extension	lumbar_bending	lumbar_rotation	arm_flex_r	arm_add_r	arm_rot_r	elbow_flex_r	pro_sup_r	wrist_flex_r	wrist_dev_r	arm_flex_l	arm_add_l	arm_rot_l	elbow_flex_l	pro_sup_l	wrist_flex_l	wrist_dev_l
     10.65750000	     -3.75512829	     -5.44168931	      0.73570460	      1.05669288	      0.91910170	      0.35599794	     26.89119183	     -5.26418980	      1.06848022	     57.87470192	     57.87470192	      7.92931816	    -14.22207575	      0.04530045	     21.56465885	     -3.43374187	     -3.62154206	     31.47729805	     31.47729805	     16.60755850	    -16.17592107	      4.07109865	    -11.69243452	      6.81389892	      2.21891958	     -7.08963707	    -13.33205972	     -4.04028517	     24.63616654	     46.39919604	      0.00000000	      0.00000000	     31.66935065	    -14.96238506	      5.88958501	     42.57368584	     46.72707734	      0.00000000	      0.00000000
     10.67985714	     -3.87362462	     -5.53822874	     -0.12656928	      1.05573267	      0.91911979	      0.35591790	     27.31969378	     -5.06558444	      0.58647985	     54.29796739	     54.29796739	      6.73023462	    -14.69093122	     -4.71199066	     21.36200393	     -3.68188603	     -4.11938905	     31.57775561	     31.57775561	     17.18988952	    -16.35463360	      4.90851764	    -11.74163742	      7.00787567	      1.75081484	    -10.17052196	    -13.53513374	     -3.20387156	     26.25131921	     46.23507517	      0.00000000	      0.00000000	     32.91387838	    -15.35366500	      1.95389338	     44.27458204	     47.09621404	      0.00000000	      0.00000000
     10.70221429	     -4.05768120	     -5.70219109	     -1.12801476	      1.05472082	      0.91950106	      0.35647467	     27.64979766	     -4.65640423	      0.00190521	     50.23855284	     50.23855284	      7.13463525	    -13.73120139	     -4.73429227	     21.09772490	     -4.08397512	     -4.76722312	     31.43937283	     31.43937283	     17.33312375	    -16.60515421	      5.00848938	    -11.68906063	      7.25413464	      1.60315598	    -12.23108884	    -13.53924497	     -3.21098655	     25.83771419	     46.23416400	      0.00000000	      0.00000000	     34.45816992	    -16.32028764	      1.44952552	     45.34957516	     47.16668816	      0.00000000	      0.00000000
     10.72457143	     -4.32508384	     -5.87593070	     -2.20997677	      1.05357455	      0.92014687	      0.35768865	     27.79041946	     -4.12474753	     -0.71618143	     45.53009797	     45.53009797	      7.32753270	    -12.22407392	     -4.90617492	     20.79908686	     -4.56303512	     -5.53483987	     31.09683689	     31.09683689	     17.44663644	    -16.74651600	      5.17105459	    -11.63768494	      7.43850979	      1.67835577	    -14.15505608	    -13.44777730	     -3.27223052	     25.77506644	     46.22235781	      0.00000000	      0.00000000	     35.97126763	    -17.22311201	      0.78724605	     46.70621994	     47.25434680	      0.00000000	      0.00000000
     10.74692857	     -4.65210322	     -6.02427826	     -3.34448398	      1.05246839	      0.92107851	      0.35933271	     27.67683044	     -3.50855877	     -1.51808593	     40.26369224	     40.26369224	      7.24754763	    -10.06268031	     -4.99707243	     20.44024108	     -5.06315489	     -6.41753925	     30.56628319	     30.56628319	     17.48981449	    -16.76326973	      5.34596663	    -11.51601011	      7.60118134	      1.83185098	    -15.83573305	    -13.28300575	     -3.37535354	     26.01958121	     46.20193719	      0.00000000	      0.00000000	     37.40890720	    -18.10513011	      0.02657066	     48.20064679	     47.35070586	      0.00000000	      0.00000000
     10.76928571	     -4.96141121	     -6.11807690	     -4.45366239	      1.05146762	      0.92228415	      0.36129957	     27.26603323	     -2.88951273	     -2.47512278	     34.66172252	     34.66172252	      6.83139922	     -7.19732826	     -4.89626285	     19.96041059	     -5.53771710	     -7.46001849	     29.88520044	     29.88520044	     17.49136403	    -16.70008598	      5.46595147	    -11.44578213	      7.69905579	      2.04561302	    -17.33124965	    -13.07581849	     -3.52228522	     26.59253494	     46.17164848	      0.00000000	      0.00000000	     38.74794769	    -18.95280016	     -0.87076879	     49.90923513	     47.45920703	      0.00000000	      0.00000000
     10.79164286	     -5.28314000	     -6.17858981	     -5.57267704	      1.05057530	      0.92359259	      0.36368331	     26.70483918	     -2.16343886	     -3.29373422	     29.04556880	     29.04556880	      6.12467885	     -3.73533029	     -4.36570829	     19.34880162	     -5.96886981	     -8.46420470	     28.97673375	     28.97673375	     17.49427305	    -16.43540643	      5.45188442	    -11.29614660	      7.72474178	      2.18311940	    -18.57774663	    -12.77232597	     -3.67386198	     27.39961969	     46.13346086	      0.00000000	      0.00000000	     39.96096228	    -19.72817948	     -1.80811979	     51.69984465	     47.56851315	      0.00000000	      0.00000000
     10.81400000	     -5.52822897	     -6.01844485	     -6.62653368	      1.04989825	      0.92478542	      0.36607885	     26.20160306	     -1.79971832	     -4.55502528	     24.08838212	     24.08838212	      5.41522432	      0.96488492	     -3.04538649	     18.56280860	     -6.15513607	     -9.69056570	     27.86570534	     27.86570534	     16.89311565	    -16.31434139	      4.05917952	    -11.34636584	      7.55703600	      1.83852823	    -20.52340446	    -12.72822581	     -4.08860844	     31.80880478	     45.94740348	      0.00000000	      0.00000000	     39.85066956	    -20.59627581	     -5.34950736	     56.53821121	     47.89234447	      0.00000000	      0.00000000
     10.83635714	     -5.77924666	     -5.89838832	     -7.55929280	      1.04943269	      0.92604898	      0.36875063	     25.64604504	     -1.17959933	     -5.10076977	     19.50059202	     19.50059202	      4.26850077	      4.35130778	     -1.27000393	     17.75910404	     -6.33591333	    -10.76618328	     26.74282864	     26.74282864	     16.81278851	    -15.92772853	      3.91333157	    -11.16825084	      7.45067755	      1.97257714	    -21.11131464	    -12.31050495	     -3.90125622	     32.02055675	     45.91999740	      0.00000000	      0.00000000	     41.21460863	    -21.30001067	     -5.77721259	     57.62302560	     47.94812428	      0.00000000	      0.00000000
     10.85871429	     -5.99388548	     -5.60183523	     -8.38798297	      1.04920017	      0.92699825	      0.37126583	     25.57749457	     -1.04318381	     -6.36724542	     16.50548390	     16.50548390	      4.19175554	      9.02008869	      3.10184708	     16.86052465	     -6.30286129	    -11.99955652	     25.45138896	     25.45138896	     16.18702377	    -15.47683459	      2.22397041	    -11.01973745	      7.18165547	      1.85700224	    -21.88491833	    -12.07900898	     -3.46833761	     33.59885050	     45.81786382	      0.00000000	      0.00000000	     41.85469042	    -22.04738979	     -6.98701881	     60.31452448	     48.06344093	      0.00000000	      0.00000000
     10.88107143	     -6.20496698	     -5.29106289	     -9.08352804	      1.04917340	      0.92782577	      0.37396810	     25.41770763	     -0.70253900	     -6.23486317	     13.79143048	     13.79143048	      2.96041762	     10.89294132	      4.72697652	     16.04817172	     -6.16693804	    -12.89956456	     24.31111866	     24.31111866	     16.09901221	    -15.10413216	      2.05866551	    -10.74941315	      6.92513903	      1.82901000	    -22.09668465	    -11.61719492	     -3.27105312	     33.89409731	     45.79097592	      0.00000000	      0.00000000	     43.07993499	    -22.61140809	     -7.32651557	     61.28708130	     48.11003211	      0.00000000	      0.00000000
     10.90342857	     -6.29699924	     -5.08112381	     -9.68940742	      1.04944268	      0.92859145	      0.37656000	     25.49436315	     -0.56042041	     -6.72018087	     12.49633394	     12.49633394	      3.25428648	     13.41570825	      9.76809004	     14.98648365	     -6.08758125	    -13.85640264	     22.89450531	     22.89450531	     15.00626347	    -14.97096735	     -0.63868170	    -10.72624976	      6.84620836	      1.40628379	    -22.44533099	    -11.83261046	     -1.27064070	     35.59089023	     45.61029122	      0.00000000	      0.00000000	     43.29978903	    -23.39497562	     -8.86675058	     64.25958310	     48.20519303	      0.00000000	      0.00000000
     10.92578571	     -6.34293865	     -4.73678797	    -10.14468496	      1.05002968	      0.92897769	      0.37917338	     25.42715500	     -0.55823624	     -6.56453348	     11.43311531	     11.43311531	      2.26268447	     14.72552313	     10.22364975	     14.11848758	     -5.84223351	    -14.61642828	     21.96791794	     21.96791794	     15.05837417	    -14.43274069	     -0.84702831	    -10.61759897	      6.65283539	      1.41574750	    -22.57491049	    -11.50559767	     -1.10929832	     35.94103244	     45.58757102	      0.00000000	      0.00000000	     44.30760007	    -23.75004666	     -9.17465732	     65.43327333	     48.24736904	      0.00000000	      0.00000000
     10.94814286	     -6.39604509	     -4.34759550	    -10.47291503	      1.05085514	      0.92894241	      0.38178497	     25.45783065	     -0.69116421	     -6.18241651	     11.03039767	     11.03039767	      1.54435069	     15.52166916	     10.31300882	     13.39984022	     -5.53562687	    -15.19533423	     21.26283909	     21.26283909	     15.13118291	    -14.01485868	     -1.11524432	    -10.45692520	      6.44366978	      1.34789513	    -22.61738259	    -11.23061672	     -0.98820662	     36.31242053	     45.56631313	      0.00000000	      0.00000000	     45.22184117	    -24.01552249	     -9.49434084	     66.58046598	     48.29180942	      0.00000000	      0.00000000
